<svg width="26" height="26" viewBox="0 0 26 26" fill="none" xmlns="http://www.w3.org/2000/svg">
<g clip-path="url(#clip0_429_700)">
<path d="M22.2036 7.41659L25.2078 1.19893C25.2642 1.08213 25.2408 0.942485 25.1489 0.851079C25.0575 0.759165 24.9179 0.735805 24.8011 0.792172L18.5834 3.79639V3.7969C18.5529 3.81163 18.5245 3.83092 18.5006 3.8553L12.3145 10.0415L10.1085 7.76952C10.3665 6.87526 9.99832 5.77635 9.15129 4.97096C8.34945 4.20823 7.2541 4.04217 6.1948 3.8812C5.01922 3.70295 3.80352 3.51811 2.92094 2.53041C2.43141 1.98248 2.14805 1.47467 2.07848 1.02069C2.05766 0.885102 1.94848 0.779477 1.81238 0.763735C1.67578 0.747993 1.54578 0.825688 1.49449 0.953149C0.950625 2.31155 0.773398 3.85784 0.996328 5.30764C1.23703 6.87373 1.91496 8.22553 2.95699 9.21678C4.00816 10.2167 5.38027 10.8286 6.8316 10.9469L9.2691 13.0868L1.3193 21.0366C0.959766 21.3962 0.761719 21.8755 0.761719 22.3869C0.761719 22.8983 0.959766 23.3776 1.3193 23.7372L2.26281 24.6807C2.63504 25.0529 3.12406 25.2393 3.61309 25.2393C4.10211 25.2393 4.59113 25.0529 4.96336 24.6807L13.1503 16.4937L22.7033 24.8808C22.977 25.121 23.3152 25.2398 23.6524 25.2398C24.0327 25.2398 24.4116 25.089 24.6944 24.7914L24.7015 24.7843C25.2357 24.2226 25.2312 23.3472 24.6914 22.7911L15.9047 13.7399L22.1447 7.49987C22.1691 7.47498 22.1889 7.44705 22.2036 7.41659ZM19.2344 4.15846L21.6861 2.97373L23.0263 4.31334L21.8415 6.76506L19.2344 4.15846ZM23.3071 3.73241L22.2676 2.69291L24.279 1.72096L23.3071 3.73241ZM18.7159 4.50174L19.892 5.67784L13.8973 11.6721L12.739 10.4787L18.7159 4.50174ZM10.7504 9.30514L8.53684 11.6324L7.38512 10.6214L9.68297 8.20522L10.7504 9.30514ZM1.78547 1.99518C1.95 2.29936 2.17598 2.61166 2.46645 2.93666C3.49527 4.08838 4.88109 4.29862 6.1034 4.48397C7.11395 4.63733 8.06863 4.78205 8.73133 5.41276C9.35543 6.00639 9.66875 6.8062 9.55602 7.45416L6.8184 10.3324C5.52906 10.2131 4.31184 9.66416 3.37645 8.77448C1.7027 7.18248 1.09738 4.49006 1.78547 1.99518ZM10.9804 14.5889L6.70668 18.8627L5.53059 17.6866L9.72816 13.489L10.9804 14.5889ZM7.88227 20.9005L6.87324 21.9096L4.09094 19.1267L5.09996 18.1177L7.88227 20.9005ZM4.53273 24.2501C4.02594 24.7574 3.20074 24.7569 2.69395 24.2501L1.75043 23.3065C1.50617 23.0623 1.3716 22.7358 1.3716 22.3869C1.3716 22.0385 1.50617 21.712 1.75043 21.4672L3.66031 19.5574L6.44262 22.3402L4.53273 24.2501ZM8.31289 20.4694L7.1368 19.2933L11.439 14.9911L12.6912 16.0905L8.31289 20.4694ZM24.2602 24.3638L24.2531 24.3709C23.9449 24.6949 23.4411 24.7173 23.1055 24.4227L8.99488 12.0351L11.1749 9.74288L24.2541 23.2151C24.5654 23.5356 24.568 24.0403 24.2602 24.3638ZM15.4802 13.3026L14.3218 12.1093L20.3227 6.10846L21.4982 7.28405L15.4802 13.3026Z" fill="#0B7780"/>
</g>
<defs>
<clipPath id="clip0_429_700">
<rect width="26" height="26" fill="white"/>
</clipPath>
</defs>
</svg>
