<svg width="51" height="58" viewBox="0 0 51 58" fill="none" xmlns="http://www.w3.org/2000/svg">
<path d="M48.3633 38.0096C48.3633 38.0096 43.3711 25.5249 43.3655 25.5115C43.1865 25.0655 42.6272 24.8625 42.1891 25.0895L37.971 27.2798C37.004 27.7659 36.0066 27.416 34.4582 26.8017C32.3368 25.9603 29.466 24.8251 25.7273 27.0741C23.008 25.5142 20.6854 26.0431 18.7981 26.4758C17.3462 26.807 16.2001 27.0715 15.0898 26.4651C15.0705 26.4544 15.0512 26.4438 15.0291 26.4357L9.51615 23.9703C9.10013 23.7833 8.60421 23.9596 8.40859 24.363C8.40859 24.363 2.65315 36.2333 2.65315 36.236C2.45203 36.65 2.65866 37.1628 3.09673 37.3338C3.17111 37.3658 8.23778 39.5775 8.71992 39.7591C9.12493 39.9114 9.25166 40.3628 9.42523 41.2843C9.51891 41.7785 9.61258 42.2833 9.82748 42.7427L9.00094 44.2385C8.59319 44.9758 8.51053 45.8225 8.76125 46.6265C9.01197 47.4305 9.5685 48.0902 10.3289 48.4829C10.8028 48.7286 11.3235 48.8542 11.847 48.8542C11.9186 48.8542 11.9902 48.8515 12.0619 48.8462C11.7946 50.163 12.4256 51.5546 13.7094 52.2198C14.6958 52.7326 15.919 52.7005 16.8833 52.153C17.1616 52.7914 17.6575 53.347 18.338 53.6995C19.2252 54.159 20.3272 54.1857 21.2447 53.769C21.5009 54.4928 22.0271 55.1286 22.7765 55.5159C23.2504 55.7616 23.7711 55.8872 24.2946 55.8872C25.336 55.8872 26.3417 55.3903 26.9423 54.565L28.0829 55.1713C28.5761 55.4331 29.1106 55.5586 29.6368 55.5586C30.7802 55.5586 31.8905 54.971 32.4773 53.9346C32.852 53.2722 32.9539 52.5349 32.8189 51.8431C33.8962 51.7844 34.9183 51.2047 35.4749 50.2244C35.7917 49.6662 35.9102 49.0545 35.8578 48.4615C36.0094 48.4829 36.1609 48.4936 36.3124 48.4936C37.4558 48.4936 38.5661 47.9059 39.153 46.8696C39.5111 46.2392 39.6158 45.5367 39.5056 44.8716C39.7811 44.8662 40.0594 44.8288 40.3349 44.7514C41.178 44.519 41.875 43.9821 42.2938 43.2422C42.652 42.6092 42.7567 41.9013 42.6409 41.2309L47.9087 39.054C48.3275 38.8777 48.5259 38.4182 48.3633 38.0096ZM11.1224 47.0512C10.3757 46.6639 10.0837 45.7263 10.4832 45.0025C10.4832 45.0025 12.0068 42.2432 12.0068 42.2406C12.4063 41.5167 13.3761 41.2336 14.1227 41.6209C14.8693 42.0082 15.1614 42.9457 14.7619 43.6696C14.7619 43.6696 13.2356 46.4342 13.2356 46.4368C12.8333 47.158 11.8635 47.4385 11.1224 47.0512ZM15.6904 50.9002C15.2881 51.0178 14.8666 50.9777 14.5029 50.7907C13.7425 50.3954 13.456 49.4765 13.8637 48.742L15.9301 44.9945C16.3378 44.2626 17.2828 43.9848 18.0432 44.3801C18.4069 44.5698 18.6742 44.8849 18.7954 45.2749C18.9194 45.6649 18.878 46.0763 18.6824 46.4288L16.6188 50.171C16.4205 50.5209 16.0926 50.7827 15.6904 50.9002ZM20.319 52.3773C19.9167 52.4949 19.4952 52.4548 19.1315 52.2652C18.3711 51.8725 18.0846 50.951 18.4896 50.2164L20.1592 47.1901C20.2528 46.915 20.735 46.5918 20.9967 46.4876C21.4072 46.3273 21.8894 46.3674 22.2724 46.5677C22.636 46.7547 22.9033 47.0726 23.0273 47.4625C23.1512 47.8525 23.1099 48.2639 22.9143 48.6165L21.2447 51.6428C21.0491 52.0007 20.7185 52.2598 20.319 52.3773ZM24.7575 54.1937C24.3552 54.3112 23.9337 54.2711 23.5673 54.0815C22.8068 53.6889 22.5203 52.7673 22.9281 52.0328L24.3883 49.3831C24.7712 48.6485 25.7686 48.3814 26.5042 48.7634C27.2509 49.1507 27.5429 50.0909 27.1434 50.8121L25.6832 53.4618C25.4876 53.8171 25.1597 54.0762 24.7575 54.1937ZM31.0116 53.152C30.5956 53.8838 29.6451 54.1509 28.8901 53.7476L27.7578 53.144L28.6201 51.5787C28.8323 51.1914 28.959 50.772 28.9921 50.3446L30.3834 51.0872L30.3944 51.0926C31.1493 51.4986 31.4249 52.4201 31.0116 53.152ZM40.8308 42.4569C40.4258 43.1701 39.456 43.4639 38.7177 43.0579L32.7694 39.7992C32.3671 39.5775 31.8574 39.7164 31.6287 40.1064C31.4001 40.4963 31.5433 40.9905 31.9456 41.2122C31.9456 41.2122 37.0453 44.0088 37.0673 44.0195C37.8222 44.4309 38.1005 45.3551 37.69 46.0789C37.274 46.8108 36.3235 47.0779 35.5686 46.6772L29.0885 43.1674C28.6863 42.9484 28.1766 43.0873 27.9479 43.4773C27.722 43.8699 27.8652 44.3641 28.2675 44.5831L33.3893 47.3771C34.1442 47.7884 34.4224 48.7126 34.0119 49.4391C33.5959 50.171 32.6454 50.4381 31.8905 50.0375L28.2482 48.0849C27.9865 47.7804 27.6641 47.5213 27.2922 47.3317C26.5318 46.9363 25.6584 46.8562 24.8291 47.0993C24.7768 47.1153 24.7244 47.1313 24.6748 47.1474C24.661 47.0939 24.6473 47.0432 24.6307 46.9898C24.38 46.1858 23.8235 45.5287 23.0631 45.136C22.3027 44.7407 21.4293 44.6579 20.6 44.9036C20.5476 44.9197 20.4953 44.9357 20.4457 44.9517C20.4319 44.901 20.4182 44.8475 20.4016 44.7941C20.1482 43.9901 19.5916 43.3304 18.834 42.9404C18.1259 42.5718 17.3352 42.489 16.6051 42.6466C16.583 42.4436 16.5417 42.2406 16.4783 42.0376C16.2249 41.2336 15.6683 40.5765 14.9107 40.1838C14.1503 39.7885 13.2741 39.7084 12.4448 39.9514C11.8993 40.1117 11.4199 40.4002 11.0397 40.7902C10.8607 39.866 10.5631 38.7067 9.33156 38.2419C8.84941 38.0603 6.22103 36.9117 4.80765 36.2947C4.70847 36.252 4.61755 36.2119 4.5349 36.1745L9.57401 25.7787L14.3018 27.8942C15.9714 28.789 17.6052 28.415 19.1866 28.0517C20.8204 27.6778 22.3798 27.3199 24.2202 28.1292C23.7932 28.4738 23.3634 28.8531 22.9446 29.2644C21.3246 30.851 19.2527 32.3522 16.7897 33.7198C16.583 33.8347 16.437 34.027 16.3874 34.254C16.3378 34.4784 16.3902 34.7134 16.5279 34.9004C19.7624 39.2222 23.5893 37.7211 26.6668 36.5138C28.7138 35.7098 30.4826 35.0153 31.9098 35.8032L40.2082 40.3895C40.9576 40.8115 41.2386 41.7357 40.8308 42.4569ZM41.9577 39.7458C41.707 39.4439 41.3984 39.1848 41.032 38.9818L32.7335 34.3956C32.0062 33.9949 31.2596 33.8347 30.4991 33.8347C29.0279 33.8347 27.5153 34.4303 26.0331 35.0099C23.2201 36.1131 20.7598 37.08 18.462 34.6467C20.6909 33.3352 22.5947 31.9141 24.1293 30.4076C24.8043 29.7452 25.4931 29.1789 26.1708 28.7249C29.4109 26.5506 31.6535 27.4401 33.8218 28.3002C35.4033 28.9279 37.037 29.5743 38.7507 28.7115L42.145 26.9513L46.5091 37.8627L41.9577 39.7458ZM18.0818 23.8635C18.5447 23.8635 18.9194 23.5002 18.9194 23.0515V16.5207C18.9194 15.2813 20.2859 14.6803 21.432 14.3971C24.0797 13.7374 26.8183 13.7374 29.5679 14.3998C30.5046 14.6242 32.0751 15.2011 32.0751 16.5233V23.0515C32.0751 23.5002 32.4498 23.8635 32.9126 23.8635C33.3755 23.8635 33.7502 23.5002 33.7502 23.0515V16.5207C33.7502 14.7471 32.3726 13.3982 29.9729 12.8212C29.2153 12.6396 28.4548 12.5033 27.6999 12.4125C28.8819 11.5177 29.6726 9.92575 29.6726 8.11208C29.6726 6.78455 29.2428 5.69207 28.43 4.95485C27.6944 4.28708 26.6805 3.93182 25.4986 3.93182C24.3167 3.93182 23.3028 4.28441 22.5672 4.95485C21.7544 5.69207 21.3246 6.78455 21.3246 8.11208C21.3246 9.9204 22.1126 11.5097 23.2917 12.4072C22.5286 12.498 21.7709 12.6369 21.0188 12.8239C18.6218 13.4222 17.247 14.7684 17.247 16.5207V23.0515C17.2443 23.5002 17.619 23.8635 18.0818 23.8635ZM25.4986 5.55852C26.6392 5.55852 27.9975 6.00192 27.9975 8.11475C27.9975 9.97917 26.8541 11.5551 25.4986 11.5551C24.1431 11.5551 22.9997 9.97917 22.9997 8.11475C22.9997 6.00192 24.358 5.55852 25.4986 5.55852ZM21.4513 17.2098C21.9142 17.2098 22.2889 17.5731 22.2889 18.0218V23.0515C22.2889 23.5002 21.9142 23.8635 21.4513 23.8635C20.9885 23.8635 20.6138 23.5002 20.6138 23.0515V18.0245C20.6138 17.5731 20.9912 17.2098 21.4513 17.2098ZM29.5431 17.2098C30.006 17.2098 30.3807 17.5731 30.3807 18.0218V23.0515C30.3807 23.5002 30.006 23.8635 29.5431 23.8635C29.0803 23.8635 28.7056 23.5002 28.7056 23.0515V18.0245C28.7083 17.5731 29.083 17.2098 29.5431 17.2098Z" fill="white"/>
</svg>
