<svg width="24" height="24" viewBox="0 0 24 24" fill="none" xmlns="http://www.w3.org/2000/svg">
<g clip-path="url(#clip0_586_179)">
<path d="M12 0C5.38332 0 0 5.38332 0 12C0 18.6166 5.38332 24 12 24C18.6166 24 24 18.6166 24 12C24 5.38332 18.6167 0 12 0ZM12 22.9565C5.95824 22.9565 1.04346 18.0417 1.04346 12C1.04346 5.95824 5.95824 1.04346 12 1.04346C18.0417 1.04346 22.9565 5.95824 22.9565 12C22.9565 18.0417 18.0417 22.9565 12 22.9565Z" fill="#0B7780"/>
<path d="M12.0001 11.4783C10.5622 11.4783 9.39141 10.5423 9.39141 9.3913C9.39141 8.24032 10.5622 7.30433 12.0001 7.30433C13.438 7.30433 14.6088 8.24032 14.6088 9.3913C14.6088 9.6793 14.8425 9.91305 15.1305 9.91305C15.4185 9.91305 15.6523 9.6793 15.6523 9.3913C15.6523 7.6654 14.014 6.26086 12.0001 6.26086C9.98614 6.26086 8.3479 7.6654 8.3479 9.3913C8.3479 11.1172 9.98614 12.5217 12.0001 12.5217C13.438 12.5217 14.6088 13.4577 14.6088 14.6087C14.6088 15.7597 13.438 16.6957 12.0001 16.6957C10.5622 16.6957 9.39141 15.7596 9.39141 14.6087C9.39141 14.3207 9.15765 14.0869 8.86966 14.0869C8.58166 14.0869 8.3479 14.3207 8.3479 14.6087C8.3479 16.3346 9.98614 17.7391 12.0001 17.7391C14.014 17.7391 15.6523 16.3346 15.6523 14.6087C15.6523 12.8828 14.014 11.4783 12.0001 11.4783Z" fill="#0B7780"/>
<path d="M12 5.21741C11.712 5.21741 11.4783 5.45116 11.4783 5.73916V18.2609C11.4783 18.5489 11.712 18.7826 12 18.7826C12.288 18.7826 12.5218 18.5488 12.5218 18.2608V5.73911C12.5218 5.45111 12.288 5.21741 12 5.21741Z" fill="#0B7780"/>
</g>
<defs>
<clipPath id="clip0_586_179">
<rect width="24" height="24" fill="white"/>
</clipPath>
</defs>
</svg>
