<svg width="30" height="30" viewBox="0 0 30 30" fill="none" xmlns="http://www.w3.org/2000/svg">
<path d="M1.87501 15.4687H15C15.0616 15.4688 15.1225 15.4567 15.1794 15.4331C15.2363 15.4096 15.288 15.3751 15.3315 15.3315C15.3751 15.288 15.4096 15.2363 15.4331 15.1794C15.4567 15.1225 15.4688 15.0616 15.4688 15C15.4704 13.6587 15.0861 12.3453 14.3616 11.2166C13.6371 10.0878 12.6031 9.19136 11.383 8.63427C11.9834 8.04854 12.3956 7.29711 12.5669 6.47597C12.7382 5.65482 12.6608 4.80126 12.3446 4.02432C12.0284 3.24739 11.4878 2.58235 10.7918 2.11418C10.0958 1.64602 9.27597 1.39597 8.43716 1.396C7.59834 1.39602 6.77858 1.64611 6.08259 2.11432C5.38661 2.58253 4.846 3.24759 4.52985 4.02455C4.2137 4.8015 4.13635 5.65507 4.30768 6.4762C4.47902 7.29733 4.89126 8.04874 5.49174 8.63444C4.27173 9.19157 3.23781 10.088 2.51338 11.2167C1.78895 12.3454 1.40462 13.6588 1.40626 15C1.40622 15.0616 1.41832 15.1225 1.44186 15.1794C1.46541 15.2363 1.49993 15.288 1.54347 15.3315C1.587 15.3751 1.63869 15.4096 1.69558 15.4331C1.75247 15.4567 1.81344 15.4688 1.87501 15.4687ZM5.15626 5.62499C5.15562 4.89514 5.39836 4.18591 5.84607 3.60951C6.29378 3.03311 6.92091 2.62245 7.62823 2.4425C8.33555 2.26254 9.08268 2.32358 9.75141 2.61594C10.4202 2.90829 10.9723 3.41529 11.3205 4.05671C11.6688 4.69813 11.7932 5.43735 11.6741 6.15742C11.555 6.87749 11.1993 7.5373 10.6631 8.03246C10.1269 8.52762 9.44089 8.82986 8.71363 8.89136C7.98638 8.95286 7.25938 8.77012 6.64765 8.37203C6.19045 8.07404 5.81469 7.66686 5.55431 7.18725C5.29392 6.70764 5.15712 6.17072 5.15626 5.62499ZM6.3632 9.28332C6.99283 9.65036 7.70859 9.84375 8.4374 9.84374C9.1662 9.84373 9.88195 9.65032 10.5116 9.28326C11.6148 9.6772 12.58 10.3827 13.2903 11.3141C14.0006 12.2456 14.4255 13.3631 14.5134 14.5312H2.36157C2.44951 13.3632 2.87436 12.2457 3.58463 11.3142C4.29489 10.3828 5.26007 9.67729 6.3632 9.28332Z" fill="#0B7780"/>
<path d="M28.125 2.34375H16.875C16.8134 2.34371 16.7525 2.35581 16.6956 2.37936C16.6387 2.4029 16.587 2.43743 16.5435 2.48096C16.4999 2.5245 16.4654 2.57619 16.4419 2.63308C16.4183 2.68996 16.4062 2.75093 16.4063 2.8125V10.3125C16.4062 10.3741 16.4183 10.435 16.4419 10.4919C16.4654 10.5488 16.4999 10.6005 16.5435 10.644C16.587 10.6876 16.6387 10.7221 16.6956 10.7456C16.7525 10.7692 16.8134 10.7813 16.875 10.7812H18.2812V12.1875C18.2813 12.2674 18.3017 12.346 18.3406 12.4157C18.3795 12.4855 18.4356 12.5442 18.5036 12.5862C18.5716 12.6282 18.6491 12.6522 18.7289 12.6558C18.8088 12.6594 18.8882 12.6425 18.9597 12.6068L22.6108 10.7812H28.125C28.1866 10.7813 28.2475 10.7692 28.3044 10.7456C28.3613 10.7221 28.413 10.6876 28.4565 10.644C28.5001 10.6005 28.5346 10.5488 28.5581 10.4919C28.5817 10.435 28.5938 10.3741 28.5938 10.3125V2.8125C28.5938 2.75093 28.5817 2.68996 28.5581 2.63308C28.5346 2.57619 28.5001 2.5245 28.4565 2.48096C28.413 2.43743 28.3613 2.4029 28.3044 2.37936C28.2475 2.35581 28.1866 2.34371 28.125 2.34375ZM27.6562 9.84375H22.5C22.4272 9.84374 22.3555 9.86067 22.2903 9.89318L19.2188 11.429V10.3125C19.2188 10.2509 19.2067 10.19 19.1831 10.1331C19.1596 10.0762 19.1251 10.0245 19.0815 9.98096C19.038 9.93743 18.9863 9.9029 18.9294 9.87936C18.8725 9.85581 18.8116 9.84371 18.75 9.84375H17.3438V3.28125H27.6562V9.84375Z" fill="#0B7780"/>
<path d="M19.6875 6.09375H25.3125C25.4368 6.09375 25.556 6.04436 25.644 5.95646C25.7319 5.86855 25.7812 5.74932 25.7812 5.625C25.7812 5.50068 25.7319 5.38145 25.644 5.29354C25.556 5.20564 25.4368 5.15625 25.3125 5.15625H19.6875C19.5632 5.15625 19.444 5.20564 19.356 5.29354C19.2681 5.38145 19.2188 5.50068 19.2188 5.625C19.2188 5.74932 19.2681 5.86855 19.356 5.95646C19.444 6.04436 19.5632 6.09375 19.6875 6.09375Z" fill="#0B7780"/>
<path d="M19.6875 7.96875H25.3125C25.4368 7.96875 25.556 7.91936 25.644 7.83146C25.7319 7.74355 25.7812 7.62432 25.7812 7.5C25.7812 7.37568 25.7319 7.25645 25.644 7.16854C25.556 7.08064 25.4368 7.03125 25.3125 7.03125H19.6875C19.5632 7.03125 19.444 7.08064 19.356 7.16854C19.2681 7.25645 19.2188 7.37568 19.2188 7.5C19.2188 7.62432 19.2681 7.74355 19.356 7.83146C19.444 7.91936 19.5632 7.96875 19.6875 7.96875Z" fill="#0B7780"/>
<path d="M24.508 21.7593C25.1084 21.1735 25.5206 20.4221 25.6919 19.601C25.8632 18.7798 25.7857 17.9263 25.4695 17.1494C25.1533 16.3724 24.6127 15.7074 23.9167 15.2393C23.2207 14.7711 22.4009 14.5211 21.5621 14.5211C20.7233 14.5211 19.9036 14.7712 19.2076 15.2394C18.5116 15.7076 17.971 16.3726 17.6549 17.1496C17.3387 17.9265 17.2613 18.7801 17.4327 19.6012C17.604 20.4223 18.0162 21.1737 18.6167 21.7594C17.3967 22.3166 16.3628 23.213 15.6384 24.3417C14.9139 25.4705 14.5296 26.7838 14.5313 28.125C14.5312 28.1866 14.5433 28.2475 14.5669 28.3044C14.5904 28.3613 14.6249 28.413 14.6685 28.4565C14.712 28.5001 14.7637 28.5346 14.8206 28.5581C14.8775 28.5817 14.9384 28.5938 15 28.5937H19.6875C19.8118 28.5937 19.9311 28.5443 20.019 28.4564C20.1069 28.3685 20.1563 28.2493 20.1563 28.125C20.1563 28.0007 20.1069 27.8814 20.019 27.7935C19.9311 27.7056 19.8118 27.6562 19.6875 27.6562H15.4866C15.5745 26.4882 15.9994 25.3707 16.7096 24.4392C17.4199 23.5078 18.385 22.8023 19.4882 22.4083C20.1178 22.7754 20.8336 22.9687 21.5624 22.9687C22.2912 22.9687 23.0069 22.7753 23.6365 22.4083C24.7397 22.8022 25.705 23.5077 26.4153 24.4391C27.1256 25.3706 27.5505 26.4881 27.6384 27.6562H23.4375C23.3132 27.6562 23.194 27.7056 23.106 27.7935C23.0181 27.8814 22.9688 28.0007 22.9688 28.125C22.9688 28.2493 23.0181 28.3685 23.106 28.4564C23.194 28.5443 23.3132 28.5937 23.4375 28.5937H28.125C28.1866 28.5938 28.2475 28.5817 28.3044 28.5581C28.3613 28.5346 28.413 28.5001 28.4565 28.4565C28.5001 28.413 28.5346 28.3613 28.5581 28.3044C28.5817 28.2475 28.5938 28.1866 28.5938 28.125C28.5954 26.7837 28.2111 25.4703 27.4866 24.3416C26.7621 23.2128 25.7281 22.3164 24.508 21.7593ZM19.7727 21.497C19.1798 21.1111 18.7275 20.544 18.4832 19.8801C18.2389 19.2162 18.2157 18.4912 18.417 17.813C18.6184 17.1349 19.0335 16.54 19.6005 16.117C20.1675 15.694 20.856 15.4655 21.5634 15.4657C22.2708 15.4659 22.9592 15.6947 23.526 16.118C24.0928 16.5413 24.5076 17.1364 24.7086 17.8147C24.9096 18.4929 24.886 19.218 24.6413 19.8817C24.3967 20.5455 23.9441 21.1124 23.351 21.498C22.8168 21.8397 22.1959 22.0212 21.5617 22.0211C20.9275 22.0209 20.3067 21.839 19.7727 21.497Z" fill="#0B7780"/>
<path d="M13.125 17.3438H1.875C1.81343 17.3437 1.75246 17.3558 1.69557 17.3794C1.63869 17.4029 1.587 17.4374 1.54346 17.481C1.49993 17.5245 1.4654 17.5762 1.44186 17.6331C1.41831 17.69 1.40621 17.7509 1.40625 17.8125V25.3125C1.40621 25.3741 1.41831 25.435 1.44186 25.4919C1.4654 25.5488 1.49993 25.6005 1.54346 25.644C1.587 25.6876 1.63869 25.7221 1.69557 25.7456C1.75246 25.7692 1.81343 25.7813 1.875 25.7812H7.38923L11.0403 27.6068C11.1118 27.6425 11.1912 27.6593 11.271 27.6557C11.3509 27.6521 11.4284 27.6282 11.4964 27.5862C11.5643 27.5442 11.6204 27.4855 11.6593 27.4157C11.6983 27.3459 11.7187 27.2674 11.7188 27.1875V25.7812H13.125C13.1866 25.7813 13.2475 25.7692 13.3044 25.7456C13.3613 25.7221 13.413 25.6876 13.4565 25.644C13.5001 25.6005 13.5346 25.5488 13.5581 25.4919C13.5817 25.435 13.5938 25.3741 13.5938 25.3125V17.8125C13.5938 17.7509 13.5817 17.69 13.5581 17.6331C13.5346 17.5762 13.5001 17.5245 13.4565 17.481C13.413 17.4374 13.3613 17.4029 13.3044 17.3794C13.2475 17.3558 13.1866 17.3437 13.125 17.3438ZM12.6562 24.8438H11.25C11.1884 24.8437 11.1275 24.8558 11.0706 24.8794C11.0137 24.9029 10.962 24.9374 10.9185 24.981C10.8749 25.0245 10.8404 25.0762 10.8169 25.1331C10.7933 25.19 10.7812 25.2509 10.7812 25.3125V26.429L7.70965 24.8932C7.64455 24.8607 7.57277 24.8437 7.5 24.8438H2.34375V18.2813H12.6562V24.8438Z" fill="#0B7780"/>
<path d="M4.6875 21.0938H10.3125C10.4368 21.0938 10.556 21.0444 10.644 20.9565C10.7319 20.8685 10.7812 20.7493 10.7812 20.625C10.7812 20.5007 10.7319 20.3815 10.644 20.2935C10.556 20.2056 10.4368 20.1562 10.3125 20.1562H4.6875C4.56318 20.1562 4.44395 20.2056 4.35604 20.2935C4.26814 20.3815 4.21875 20.5007 4.21875 20.625C4.21875 20.7493 4.26814 20.8685 4.35604 20.9565C4.44395 21.0444 4.56318 21.0938 4.6875 21.0938Z" fill="#0B7780"/>
<path d="M4.6875 22.9688H10.3125C10.4368 22.9688 10.556 22.9194 10.644 22.8315C10.7319 22.7435 10.7812 22.6243 10.7812 22.5C10.7812 22.3757 10.7319 22.2565 10.644 22.1685C10.556 22.0806 10.4368 22.0312 10.3125 22.0312H4.6875C4.56318 22.0312 4.44395 22.0806 4.35604 22.1685C4.26814 22.2565 4.21875 22.3757 4.21875 22.5C4.21875 22.6243 4.26814 22.7435 4.35604 22.8315C4.44395 22.9194 4.56318 22.9688 4.6875 22.9688Z" fill="#0B7780"/>
<path d="M21.5625 28.5938C21.8214 28.5938 22.0312 28.3839 22.0312 28.125C22.0312 27.8661 21.8214 27.6562 21.5625 27.6562C21.3036 27.6562 21.0938 27.8661 21.0938 28.125C21.0938 28.3839 21.3036 28.5938 21.5625 28.5938Z" fill="#0B7780"/>
</svg>
