<svg width="46" height="49" viewBox="0 0 46 49" fill="none" xmlns="http://www.w3.org/2000/svg">
<g clip-path="url(#clip0_502_140)">
<path fill-rule="evenodd" clip-rule="evenodd" d="M31.556 45.5596H8.7093C8.49463 45.5596 8.29019 45.4658 8.14708 45.299C8.00397 45.1322 7.93241 44.9133 7.95285 44.6943C8.6173 38.293 13.1355 33.0594 19.0951 31.433C16.6315 30.036 14.9653 27.3462 14.9653 24.2811C14.9653 19.7773 18.5737 16.0971 23 16.0971C27.4262 16.0971 31.0244 19.7773 31.0244 24.2811C31.0244 27.3462 29.3582 30.0256 26.9049 31.433C28.6631 31.9126 30.2884 32.705 31.7297 33.7371C33.1813 32.3296 35.144 31.4747 37.2906 31.4747C41.7475 31.4747 45.3866 35.1862 45.3866 39.7318C45.3866 44.2773 41.7475 47.9888 37.2906 47.9888C35.052 47.9888 33.0177 47.0505 31.556 45.5492V45.5596ZM20.5773 32.6945C14.9653 33.7267 10.5391 38.2618 9.57819 44.0062H22.1822L18.2569 40.2426C18.032 40.0237 17.9604 39.6901 18.0626 39.3982L20.5773 32.6945ZM23.8177 44.0062H30.36C29.624 42.7656 29.1946 41.306 29.1946 39.7422C29.1946 37.949 29.7569 36.2809 30.7177 34.9256C29.1537 33.8205 27.3546 33.049 25.4124 32.6945L27.9271 39.3982C28.0395 39.6901 27.9577 40.0237 27.7329 40.2426L23.8177 44.0062ZM23 30.9222C26.5777 30.9222 29.5013 27.9405 29.5013 24.2916C29.5013 20.6426 26.5777 17.6609 23 17.6609C19.4222 17.6609 16.4884 20.6426 16.4884 24.2916C16.4884 27.9405 19.412 30.9222 23 30.9222ZM23.7053 32.4965C23.4702 32.486 23.2351 32.4756 23 32.4756C22.7649 32.4756 22.5195 32.4756 22.2844 32.4965C21.6506 34.1958 19.6777 39.4711 19.6777 39.4711L23 42.6613L26.312 39.4711L23.7053 32.4965ZM37.2906 46.4458C40.9093 46.4458 43.8635 43.4328 43.8635 39.7422C43.8635 36.0516 40.9093 33.0282 37.2906 33.0282C33.672 33.0282 30.7177 36.0411 30.7177 39.7422C30.7177 43.4433 33.672 46.4458 37.2906 46.4458ZM36.3297 39.3043L39.3555 36.1871C40.0711 35.4469 41.2466 35.4469 41.9622 36.1871C42.688 36.9169 42.688 38.1054 41.9622 38.8456C40.5106 40.3364 39.0795 41.8377 37.628 43.3181C36.9022 44.0584 35.7369 44.0584 35.0111 43.3181L32.5986 40.8577C31.8831 40.1279 31.8729 38.929 32.5986 38.1992C33.3244 37.459 34.4897 37.459 35.2155 38.1992L36.3195 39.3252L36.3297 39.3043ZM35.788 40.9516L34.1524 39.2835C34.0195 39.1479 33.8151 39.1479 33.6924 39.2835C33.5595 39.419 33.5595 39.6275 33.6924 39.763L36.1049 42.2235C36.2377 42.359 36.4422 42.359 36.5751 42.2235C38.0266 40.743 39.4577 39.2418 40.9093 37.7613C41.032 37.6258 41.0422 37.4173 40.9093 37.2922C40.7764 37.1671 40.572 37.1671 40.4493 37.2922L36.8817 40.962C36.7386 41.1079 36.5444 41.1913 36.34 41.1913C36.1355 41.1913 35.9413 41.1079 35.7982 40.962L35.788 40.9516ZM20.6284 4.38922C20.9657 3.48219 21.9982 0.709003 21.9982 0.709003C22.3457 -0.229295 23.6542 -0.229295 24.0017 0.709003L25.3715 4.38922C26.3222 4.44134 29.2355 4.5873 29.2253 4.5873C30.2169 4.629 30.6155 5.90092 29.8489 6.52645L26.8333 8.9973C27.0786 9.9356 27.8453 12.8026 27.8453 12.8026C28.1111 13.7618 27.0582 14.5541 26.2302 14.012L22.9897 11.8539L19.7595 14.012C18.9417 14.5541 17.8889 13.7722 18.1444 12.813C18.1444 12.813 18.9111 9.9356 19.1564 9.00773C18.4102 8.40305 16.1409 6.53688 16.1409 6.53688C15.3742 5.91134 15.7729 4.63943 16.7542 4.59773L20.6182 4.39964L20.6284 4.38922ZM18.032 6.07815C18.9929 6.86007 20.3422 7.9756 20.3422 7.9756C20.6795 8.24666 20.8226 8.67411 20.7102 9.11198L19.9333 12.0311C20.9657 11.343 22.4071 10.3735 22.4071 10.3735C22.7751 10.1233 23.2146 10.1233 23.5826 10.3735C23.5826 10.3735 25.0342 11.343 26.0666 12.0311L25.2897 9.11198C25.1773 8.68453 25.3204 8.25709 25.6577 7.9756L27.968 6.07815L25.0035 5.93219C24.5742 5.91134 24.2164 5.6507 24.0631 5.23368L23.0102 2.40836L21.9573 5.23368C21.804 5.6507 21.4462 5.91134 21.0169 5.93219L18.0524 6.07815H18.032ZM36.3706 15.8782C36.708 14.9711 37.7404 12.1979 37.7404 12.1979C38.088 11.2596 39.3964 11.2596 39.744 12.1979L41.1137 15.8782C42.0644 15.9303 44.9777 16.0762 44.9675 16.0762C45.9591 16.1179 46.3577 17.3899 45.5911 18.0154L42.5755 20.4862C42.8209 21.4245 43.5875 24.2916 43.5875 24.2916C43.8533 25.2507 42.8004 26.043 41.9724 25.5009L38.732 23.3428L35.5017 25.5009C34.684 26.043 33.6311 25.2611 33.8866 24.302C33.8866 24.302 34.6533 21.4245 34.8986 20.4967C34.1524 19.892 31.8831 18.0258 31.8831 18.0258C31.1164 17.4003 31.5151 16.1284 32.4964 16.0867L36.3604 15.8886L36.3706 15.8782ZM33.7844 17.5671C34.7453 18.349 36.0946 19.4645 36.0946 19.4645C36.432 19.7356 36.5751 20.163 36.4626 20.6009L35.6857 23.5201C36.7182 22.832 38.1595 21.8624 38.1595 21.8624C38.5275 21.6122 38.9671 21.6122 39.3351 21.8624C39.3351 21.8624 40.7866 22.832 41.8191 23.5201L41.0422 20.6009C40.9297 20.1735 41.0729 19.746 41.4102 19.4645L43.7204 17.5671L40.756 17.4211C40.3266 17.4003 39.9689 17.1396 39.8155 16.7226L38.7626 13.8973L37.7097 16.7226C37.5564 17.1396 37.1986 17.4003 36.7693 17.4211L33.8049 17.5671H33.7844ZM4.88619 15.8782C5.22352 14.9711 6.25597 12.1979 6.25597 12.1979C6.60352 11.2596 7.91197 11.2596 8.25952 12.1979L9.6293 15.8782C10.58 15.9303 13.4933 16.0762 13.4831 16.0762C14.4746 16.1179 14.8733 17.3899 14.1066 18.0154L11.0911 20.4862C11.3364 21.4245 12.1031 24.2916 12.1031 24.2916C12.3689 25.2507 11.316 26.043 10.488 25.5009L7.24752 23.3428L4.0173 25.5009C3.19952 26.043 2.14663 25.2611 2.40219 24.302C2.40219 24.302 3.16885 21.4245 3.41419 20.4967C2.66797 19.892 0.398632 18.0258 0.398632 18.0258C-0.368035 17.4003 0.0306321 16.1284 1.01197 16.0867L4.87597 15.8886L4.88619 15.8782ZM2.28974 17.5671C3.25063 18.349 4.59997 19.4645 4.59997 19.4645C4.9373 19.7356 5.08041 20.163 4.96797 20.6009L4.19108 23.5201C5.22352 22.832 6.66485 21.8624 6.66485 21.8624C7.03285 21.6122 7.47241 21.6122 7.84041 21.8624C7.84041 21.8624 9.29197 22.832 10.3244 23.5201L9.54752 20.6009C9.43508 20.1735 9.57819 19.746 9.91552 19.4645L12.2257 17.5671L9.2613 17.4211C8.83197 17.4003 8.47419 17.1396 8.32086 16.7226L7.26797 13.8973L6.21508 16.7226C6.06174 17.1396 5.70397 17.4003 5.27463 17.4211L2.31019 17.5671H2.28974Z" fill="white"/>
</g>
<defs>
<clipPath id="clip0_502_140">
<rect width="46" height="49" fill="white"/>
</clipPath>
</defs>
</svg>
