<svg width="26" height="26" viewBox="0 0 26 26" fill="none" xmlns="http://www.w3.org/2000/svg">
<g clip-path="url(#clip0_586_172)">
<path d="M1.41772 7.10172C1.41772 10.5636 4.2341 13.38 7.69596 13.38C11.1578 13.38 13.9742 10.5636 13.9742 7.10172C13.9742 3.63987 11.1578 0.823486 7.69596 0.823486C4.2341 0.823486 1.41772 3.63987 1.41772 7.10172ZM7.69596 1.63355C10.7111 1.63355 13.1641 4.08654 13.1641 7.10167C13.1641 10.1168 10.7111 12.5698 7.69596 12.5698C4.68083 12.5698 2.22784 10.1169 2.22784 7.10172C2.22784 4.08659 4.68083 1.63355 7.69596 1.63355Z" fill="#0B7780"/>
<path d="M6.68316 10.342H7.29071V10.9495C7.29071 11.1732 7.47205 11.3545 7.69574 11.3545C7.91943 11.3545 8.10077 11.1732 8.10077 10.9495V10.342H8.70832C9.37838 10.342 9.92346 9.79683 9.92346 9.12682V8.11419C9.92346 7.33247 9.28748 6.69653 8.5058 6.69653H6.88563C6.55062 6.69653 6.27808 6.42399 6.27808 6.08898V5.07636C6.27808 4.85302 6.45978 4.67132 6.68311 4.67132H8.70837C8.93171 4.67132 9.1134 4.85307 9.1134 5.07636V5.48139C9.1134 5.70508 9.29474 5.88642 9.51843 5.88642C9.74212 5.88642 9.92346 5.70508 9.92346 5.48139V5.07636C9.92346 4.40635 9.37838 3.86121 8.70832 3.86121H8.10077V3.25366C8.10077 3.02997 7.91943 2.84863 7.69574 2.84863C7.47205 2.84863 7.29071 3.02997 7.29071 3.25366V3.86121H6.68316C6.0131 3.86121 5.46802 4.40635 5.46802 5.07636V6.08898C5.46802 6.87071 6.104 7.50664 6.88568 7.50664H8.50585C8.84086 7.50664 9.1134 7.77919 9.1134 8.11419V9.12682C9.1134 9.35016 8.93171 9.53185 8.70837 9.53185H6.68311C6.45978 9.53185 6.27808 9.35011 6.27808 9.12682V8.72179C6.27808 8.4981 6.09674 8.31676 5.87305 8.31676C5.64936 8.31676 5.46802 8.4981 5.46802 8.72179V9.12682C5.46802 9.79683 6.01315 10.342 6.68316 10.342Z" fill="#0B7780"/>
<path d="M24.4513 0.496301C24.2069 0.146165 23.9405 0.248387 23.4046 0.453696C23.0424 0.592481 22.6802 0.731215 22.318 0.87C21.6245 1.13569 20.9311 1.40138 20.2376 1.66706C20.1717 1.6923 20.1058 1.71759 20.0399 1.74283C19.831 1.82291 19.7265 2.05711 19.8065 2.26598C19.8865 2.47494 20.1208 2.57935 20.3297 2.49937L23.426 1.31307C22.5022 3.6782 20.4398 7.14189 17.1687 10.2113C12.5958 14.5022 6.79316 16.9111 0.388223 17.1775C0.164684 17.1869 -0.00893666 17.3756 0.000356309 17.5991C0.00944615 17.8169 0.188856 17.9873 0.404778 17.9873C0.410466 17.9873 0.416153 17.9872 0.421891 17.9869C4.00771 17.8377 7.39873 17.0515 10.5008 15.65C13.1314 14.4614 15.5613 12.8304 17.7231 10.8019C21.0084 7.71917 23.1177 4.23187 24.111 1.78102L25.2166 4.66656C25.2783 4.82784 25.432 4.92681 25.5949 4.92681C25.6431 4.92681 25.6921 4.91818 25.7397 4.8999C25.9486 4.81982 26.0531 4.58561 25.9731 4.37675C25.7469 3.78642 25.5208 3.19614 25.2946 2.6058C25.0775 2.03898 24.8693 1.39686 24.6202 0.815411C24.563 0.68211 24.5077 0.577145 24.4513 0.496301Z" fill="#0B7780"/>
<path d="M24.5054 8.7218H21.265C20.5949 8.7218 20.0498 9.26694 20.0498 9.93695V24.9237H19.0372V15.8101C19.0372 15.1401 18.4921 14.595 17.822 14.595H14.5816C13.9116 14.595 13.3665 15.1401 13.3665 15.8101V24.9237H12.3539V18.848C12.3539 18.178 11.8088 17.6328 11.1387 17.6328H7.89831C7.22825 17.6328 6.68317 18.178 6.68317 18.848V24.9237H5.67054V20.0631C5.67054 19.3931 5.12545 18.848 4.45539 18.848H1.21514C0.545086 18.848 0 19.3931 0 20.0631V25.3287C0 25.5524 0.18134 25.7338 0.405031 25.7338H25.3155C25.5392 25.7338 25.7205 25.5524 25.7205 25.3287V9.93695C25.7205 9.26694 25.1754 8.7218 24.5054 8.7218ZM20.86 9.93695C20.86 9.71361 21.0417 9.53192 21.265 9.53192H24.5054C24.7287 9.53192 24.9104 9.71366 24.9104 9.93695V24.9237H20.86V9.93695ZM14.1767 15.8101C14.1767 15.5868 14.3583 15.4051 14.5817 15.4051H17.8221C18.0454 15.4051 18.2271 15.5868 18.2271 15.8101V24.9237H14.1767V15.8101ZM7.49338 18.848C7.49338 18.6247 7.67508 18.443 7.89841 18.443H11.1388C11.3622 18.443 11.5438 18.6247 11.5438 18.848V24.9237H7.49338V18.848ZM1.21514 19.6581H4.45555C4.67888 19.6581 4.86058 19.8398 4.86058 20.0631V24.9237H0.810113V20.0631C0.810113 19.8398 0.991809 19.6581 1.21514 19.6581Z" fill="#0B7780"/>
</g>
<defs>
<clipPath id="clip0_586_172">
<rect width="26" height="26" fill="white"/>
</clipPath>
</defs>
</svg>
