<svg width="30" height="30" viewBox="0 0 30 30" fill="none" xmlns="http://www.w3.org/2000/svg">
<path d="M12.6935 7.63724L12.1268 10.1558C12.0883 10.3269 12.1553 10.5046 12.2972 10.6078C12.4392 10.7109 12.6289 10.7197 12.7798 10.6301L14.9998 9.31302L17.2201 10.6302C17.2894 10.6713 17.3669 10.6917 17.4442 10.6917C17.5352 10.6917 17.6259 10.6635 17.7026 10.6078C17.8446 10.5047 17.9115 10.327 17.873 10.1558L17.3064 7.63741L19.2452 5.93292C19.377 5.81708 19.4272 5.63392 19.373 5.46704C19.3188 5.30017 19.1705 5.18151 18.9957 5.16528L16.4256 4.92599L15.4036 2.55528C15.3342 2.39415 15.1755 2.28979 15.0001 2.28979C14.8246 2.28979 14.666 2.39415 14.5965 2.55528L13.5746 4.92581L11.0042 5.16517C10.8295 5.18146 10.6812 5.30005 10.627 5.46692C10.5728 5.6338 10.623 5.8169 10.7548 5.93274L12.6935 7.63724ZM13.9157 5.77677C14.0757 5.76188 14.2149 5.66081 14.2785 5.51315L15 3.83937L15.7216 5.51333C15.7853 5.66093 15.9244 5.762 16.0845 5.77694L17.8992 5.94587L16.5302 7.14944C16.4095 7.25562 16.3564 7.41915 16.3917 7.57595L16.7918 9.35421L15.2241 8.42409C15.155 8.38308 15.0774 8.36257 14.9998 8.36257C14.9222 8.36257 14.8447 8.38308 14.7756 8.42409L13.208 9.35415L13.6082 7.57583C13.6435 7.41903 13.5903 7.25544 13.4696 7.14933L12.1007 5.94587L13.9157 5.77677ZM28.7477 18.9421C28.1927 18.2898 27.4833 17.7939 26.6955 17.4955C27.3805 16.8355 27.8071 15.9143 27.8071 14.8959C27.8071 12.8937 26.1605 11.2649 24.1365 11.2649C22.1125 11.2649 20.4658 12.8937 20.4658 14.8959C20.4658 15.9142 20.8924 16.8353 21.5773 17.4953C20.5753 17.8754 19.7095 18.574 19.1239 19.4841C18.7088 19.2063 18.2596 18.9833 17.7877 18.8214C18.5345 18.1023 18.9997 17.0983 18.9997 15.9884C18.9997 13.807 17.2054 12.0324 15 12.0324C12.7946 12.0324 11.0003 13.807 11.0003 15.9884C11.0003 17.0983 11.4655 18.1022 12.2123 18.8213C11.7403 18.9832 11.2911 19.2063 10.8759 19.484C10.2904 18.5739 9.42463 17.8753 8.42262 17.4953C9.10752 16.8353 9.53408 15.9141 9.53408 14.8958C9.53408 12.8937 7.88742 11.2648 5.86342 11.2648C3.83941 11.2648 2.19275 12.8937 2.19275 14.8958C2.19275 15.9142 2.61937 16.8355 3.30439 17.4955C2.5166 17.7938 1.80721 18.2898 1.25215 18.9421C0.48252 19.8468 0.0585938 20.9958 0.0585938 22.1777V24.749C0.0585938 24.9916 0.255352 25.1884 0.498047 25.1884H8.30549V27.2708C8.30549 27.5135 8.50225 27.7102 8.74494 27.7102H21.2551C21.4978 27.7102 21.6945 27.5135 21.6945 27.2708V25.1884H29.502C29.7446 25.1884 29.9414 24.9916 29.9414 24.749V22.1777C29.9414 20.9958 29.5175 19.8468 28.7477 18.9421ZM21.3448 14.8959C21.3448 13.3784 22.5971 12.1438 24.1365 12.1438C25.6759 12.1438 26.9283 13.3784 26.9283 14.8959C26.9283 16.4134 25.6759 17.648 24.1365 17.648C22.5971 17.648 21.3448 16.4134 21.3448 14.8959ZM13.1286 19.4833C13.2363 19.5399 13.3467 19.5921 13.46 19.639L13.5306 20.3585C13.542 20.4736 13.5983 20.5797 13.6873 20.6536L13.9502 20.8719L13.3986 22.1156C13.0904 21.303 12.9381 20.5048 12.8687 19.5414C12.9544 19.5196 13.0412 19.5005 13.1286 19.4833ZM15.6124 20.0928L15.1756 20.4555H14.8245L14.3877 20.0928L14.3682 19.8946C14.5741 19.927 14.7851 19.9444 15.0001 19.9444C15.215 19.9444 15.426 19.9271 15.6318 19.8946L15.6124 20.0928ZM14.7065 21.3345H15.2936L16.1132 23.1826C15.8238 23.7281 15.4594 24.3104 15 24.9764C14.5406 24.3104 14.1762 23.7281 13.8869 23.1826L14.7065 21.3345ZM16.6014 22.1156L16.0498 20.872L16.3127 20.6537C16.4017 20.5797 16.458 20.4737 16.4694 20.3585L16.54 19.6391C16.6533 19.5921 16.7637 19.5399 16.8714 19.4833C16.9588 19.5005 17.0456 19.5196 17.1312 19.5415C17.062 20.5048 16.9096 21.303 16.6014 22.1156ZM11.8792 15.9884C11.8792 14.2916 13.2792 12.9113 15 12.9113C16.7208 12.9113 18.1208 14.2917 18.1208 15.9884C18.1208 17.6851 16.7208 19.0655 15 19.0655C13.2792 19.0655 11.8792 17.6851 11.8792 15.9884ZM3.07178 14.8959C3.07178 13.3784 4.32416 12.1438 5.86353 12.1438C7.40291 12.1438 8.65529 13.3784 8.65529 14.8959C8.65529 16.4134 7.40291 17.648 5.86353 17.648C4.32416 17.648 3.07178 16.4134 3.07178 14.8959ZM0.9375 24.3095V22.1777C0.9375 20.215 2.30912 18.5397 4.21863 18.1405C4.71381 18.3871 5.27227 18.5269 5.86348 18.5269C6.45486 18.5269 7.01355 18.387 7.50891 18.1402C8.61516 18.3733 9.58687 19.0633 10.1812 20.0296C10.0099 20.1865 9.84674 20.3535 9.69416 20.5314C8.79861 21.5758 8.30543 22.9046 8.30543 24.2733V24.3095H0.9375ZM20.8156 26.8313H9.18439V24.2733C9.18439 22.3622 10.3366 20.6411 12.0119 19.8502C12.2047 22.0176 12.8464 23.4819 14.6424 25.9961C14.7249 26.1116 14.8581 26.1802 15 26.1802C15.1419 26.1802 15.2751 26.1117 15.3576 25.9961C17.1536 23.4818 17.7954 22.0175 17.9881 19.8502C19.6634 20.6411 20.8156 22.3621 20.8156 24.2732V26.8313ZM29.0625 24.3095H21.6945V24.2733C21.6945 22.9046 21.2013 21.5758 20.3058 20.5314C20.1532 20.3535 19.9901 20.1866 19.8187 20.0296C20.4131 19.0633 21.3848 18.3733 22.491 18.1402C22.9863 18.387 23.545 18.5269 24.1365 18.5269C24.7276 18.5269 25.2861 18.3871 25.7813 18.1405C27.6909 18.5397 29.0625 20.215 29.0625 22.1777V24.3095ZM4.00418 8.06503L3.5908 9.90241C3.5523 10.0736 3.61928 10.2513 3.76125 10.3544C3.90322 10.4575 4.09289 10.4663 4.24377 10.3768L5.86336 9.41591L7.48312 10.3768C7.5525 10.418 7.62996 10.4384 7.7073 10.4384C7.79824 10.4384 7.88895 10.4102 7.96564 10.3544C8.10756 10.2513 8.17459 10.0736 8.13603 9.90241L7.72266 8.06515L9.13711 6.82167C9.26889 6.70583 9.3191 6.52267 9.2649 6.35579C9.2107 6.18892 9.0624 6.07026 8.88768 6.05403L7.01262 5.87948L6.26701 4.14997C6.19752 3.98884 6.03891 3.88448 5.86348 3.88448C5.68799 3.88448 5.52938 3.98884 5.45994 4.14997L4.71445 5.87942L2.83928 6.05403C2.66455 6.07032 2.51631 6.18892 2.46205 6.35579C2.40785 6.52267 2.45807 6.70577 2.58984 6.82161L4.00418 8.06503ZM5.05559 6.73038C5.21561 6.7155 5.35477 6.61437 5.4184 6.46677L5.86353 5.43411L6.30879 6.46688C6.37242 6.61448 6.51152 6.71556 6.6716 6.7305L7.79115 6.83474L6.94652 7.57724C6.82582 7.68341 6.77268 7.84694 6.80795 8.00374L7.0548 9.10079L6.0876 8.52698C6.01846 8.48597 5.94094 8.46546 5.86336 8.46546C5.78578 8.46546 5.70826 8.48597 5.63912 8.52698L4.67209 9.10073L4.91895 8.00356C4.95422 7.84671 4.90107 7.68317 4.78037 7.57706L3.9358 6.83462L5.05559 6.73038ZM22.2772 8.06503L21.8638 9.90241C21.8253 10.0736 21.8923 10.2513 22.0343 10.3544C22.1762 10.4575 22.3659 10.4663 22.5168 10.3768L24.1365 9.41591L25.7562 10.3768C25.8256 10.418 25.9031 10.4384 25.9804 10.4384C26.0713 10.4384 26.1621 10.4102 26.2388 10.3544C26.3807 10.2513 26.4477 10.0736 26.4091 9.90241L25.9958 8.06515L27.4102 6.82167C27.542 6.70583 27.5922 6.52267 27.538 6.35579C27.4838 6.18892 27.3355 6.07026 27.1608 6.05403L25.2857 5.87948L24.5401 4.14997C24.4706 3.98884 24.312 3.88448 24.1366 3.88448C23.9611 3.88448 23.8025 3.98884 23.733 4.14997L22.9876 5.87931L21.1124 6.05392C20.9377 6.0702 20.7894 6.1888 20.7352 6.35567C20.681 6.52255 20.7312 6.70565 20.8629 6.82149L22.2772 8.06503ZM23.3286 6.73038C23.4886 6.7155 23.6278 6.61437 23.6914 6.46677L24.1365 5.43411L24.5818 6.46688C24.6454 6.61448 24.7845 6.71556 24.9446 6.7305L26.0641 6.83474L25.2195 7.57724C25.0988 7.68341 25.0457 7.84694 25.0809 8.00374L25.3278 9.10079L24.3606 8.52698C24.2914 8.48597 24.2139 8.46546 24.1363 8.46546C24.0588 8.46546 23.9813 8.48597 23.9121 8.52698L22.945 9.10073L23.1919 8.00356C23.2272 7.84677 23.174 7.68317 23.0533 7.57706L22.2087 6.83462L23.3286 6.73038Z" fill="#0B7780"/>
</svg>
