<svg width="28" height="28" viewBox="0 0 28 28" fill="none" xmlns="http://www.w3.org/2000/svg">
<g clip-path="url(#clip0_429_586)">
<path d="M27.5245 8.92336C26.9999 8.72195 26.4635 8.5434 25.9247 8.38994V8.35877C25.9247 8.13887 25.7929 7.9403 25.5903 7.85482C23.8223 7.1096 21.9761 6.71749 20.0973 6.68101C20.3992 3.1295 17.5785 0.0544739 14.0001 0.0544739C10.5228 0.0544739 7.7325 2.9656 7.88765 6.44159C5.92502 6.48419 4.06614 6.98803 2.36924 7.87397C2.21573 7.95408 2.11166 8.10136 2.08372 8.26881C1.52815 8.45956 0.975857 8.68416 0.437131 8.93982C0.246381 9.03039 0.124756 9.22272 0.124756 9.43387V27.3982C0.124756 27.7763 0.499693 28.04 0.855107 27.9133C5.43661 26.2813 9.86662 26.3971 13.804 27.9087C13.9141 27.9511 14.0433 27.9578 14.1643 27.9198C18.2087 26.646 22.6426 26.5478 27.1697 27.9215C27.5207 28.0281 27.8753 27.7648 27.8753 27.3982V9.43387C27.8754 9.20757 27.7359 9.00457 27.5245 8.92336ZM24.8309 8.72671V23.9395C21.9229 23.2339 17.4365 23.5933 14.5469 24.4596V18.5863C15.6415 18.3368 16.461 17.3563 16.461 16.1873V15.367H17.5548C17.8567 15.367 18.1016 15.1221 18.1016 14.8202V10.8635C18.9431 10.0211 19.5886 8.94748 19.9046 7.77192C21.5893 7.78373 23.2385 8.10234 24.8309 8.72671ZM10.9923 13.1795H17.0079V14.2732C16.1426 14.2732 11.7147 14.2732 10.9923 14.2732V13.1795ZM12.6329 15.367H15.3673V16.1873C15.3673 16.9412 14.7539 17.5545 14.0001 17.5545C13.2462 17.5545 12.6329 16.9412 12.6329 16.1873V15.367ZM14.0001 1.14822C16.771 1.14822 19.0253 3.40255 19.0253 6.17346C19.0253 7.74687 18.2647 9.22185 17.1818 10.2317C17.0709 10.3351 17.0079 10.4799 17.0079 10.6316V12.0857H10.9923V10.6316C10.9923 10.4787 10.9283 10.3328 10.8157 10.2292C9.70803 9.2096 8.97483 7.72248 8.97483 6.17346C8.97483 3.40255 11.2292 1.14822 14.0001 1.14822ZM9.89851 10.8655V14.8201C9.89851 15.1221 10.1434 15.367 10.4454 15.367H11.5391V16.1873C11.5391 17.3563 12.3587 18.3368 13.4532 18.5862V24.41C10.4866 23.3409 6.2228 22.9999 3.16921 23.9002V8.69526C4.76324 7.91782 6.40529 7.55169 8.03514 7.53403C8.32274 8.8054 8.9954 9.97123 9.89851 10.8655ZM1.21851 26.6371V9.78415C1.50146 9.65776 1.78769 9.54084 2.07546 9.43338V24.6639C2.07546 25.0499 2.46456 25.3131 2.82172 25.1732C5.78967 24.0113 10.3958 24.3984 13.4532 25.5802V26.6202C9.3886 25.2516 5.15765 25.3864 1.21851 26.6371ZM26.7816 26.6719C22.6701 25.5539 18.5153 25.5566 14.5469 26.6654V25.6064C17.5581 24.6614 22.3935 24.2454 25.2049 25.1827C25.5589 25.3008 25.9247 25.0366 25.9247 24.6639V9.5305C26.2121 9.6179 26.4984 9.71201 26.7816 9.81395V26.6719Z" fill="#0B7780"/>
<path d="M21.2227 2.08186L22.3164 0.988105C22.53 0.774551 22.53 0.428269 22.3164 0.21466C22.1028 0.00115991 21.7566 0.00115991 21.543 0.21466L20.4492 1.30841C20.2357 1.52196 20.2357 1.86825 20.4492 2.08186C20.6629 2.29536 21.009 2.29541 21.2227 2.08186Z" fill="#0B7780"/>
<path d="M21.3828 4.97635C21.3828 5.27833 21.6277 5.52322 21.9297 5.52322H23.5703C23.8723 5.52322 24.1172 5.27833 24.1172 4.97635C24.1172 4.67436 23.8723 4.42947 23.5703 4.42947H21.9297C21.6277 4.42947 21.3828 4.67436 21.3828 4.97635Z" fill="#0B7780"/>
<path d="M6.77735 2.08186C6.99096 2.29536 7.33708 2.29541 7.5508 2.08186C7.76435 1.8683 7.76435 1.52202 7.5508 1.30841L6.45705 0.21466C6.24344 0.00115991 5.89727 0.00115991 5.6836 0.21466C5.47005 0.428215 5.47005 0.774496 5.6836 0.988105L6.77735 2.08186Z" fill="#0B7780"/>
<path d="M4.42969 5.52322H6.07031C6.3723 5.52322 6.61719 5.27833 6.61719 4.97635C6.61719 4.67436 6.3723 4.42947 6.07031 4.42947H4.42969C4.1277 4.42947 3.88281 4.67436 3.88281 4.97635C3.88281 5.27833 4.1277 5.52322 4.42969 5.52322Z" fill="#0B7780"/>
<path d="M18.6484 18.6482H22.4766C22.7785 18.6482 23.0234 18.4033 23.0234 18.1013C23.0234 17.7994 22.7785 17.5545 22.4766 17.5545H18.6484C18.3465 17.5545 18.1016 17.7994 18.1016 18.1013C18.1016 18.4033 18.3465 18.6482 18.6484 18.6482Z" fill="#0B7780"/>
<path d="M22.4766 19.742H17.0078C16.7058 19.742 16.4609 19.9869 16.4609 20.2888C16.4609 20.5908 16.7058 20.8357 17.0078 20.8357H22.4766C22.7785 20.8357 23.0234 20.5908 23.0234 20.2888C23.0234 19.9869 22.7785 19.742 22.4766 19.742Z" fill="#0B7780"/>
<path d="M5.52344 18.6482H9.35156C9.65355 18.6482 9.89844 18.4033 9.89844 18.1013C9.89844 17.7994 9.65355 17.5545 9.35156 17.5545H5.52344C5.22145 17.5545 4.97656 17.7994 4.97656 18.1013C4.97656 18.4033 5.22145 18.6482 5.52344 18.6482Z" fill="#0B7780"/>
<path d="M5.52344 20.8357H10.9922C11.2942 20.8357 11.5391 20.5908 11.5391 20.2888C11.5391 19.9869 11.2942 19.742 10.9922 19.742H5.52344C5.22145 19.742 4.97656 19.9869 4.97656 20.2888C4.97656 20.5908 5.22145 20.8357 5.52344 20.8357Z" fill="#0B7780"/>
</g>
<defs>
<clipPath id="clip0_429_586">
<rect width="28" height="28" fill="white"/>
</clipPath>
</defs>
</svg>
