<svg width="21" height="21" viewBox="0 0 21 21" fill="none" xmlns="http://www.w3.org/2000/svg">
<path d="M12.5308 10.2785L10.1939 12.6157L9.26564 11.6878C9.00938 11.4315 8.59397 11.4315 8.33771 11.6878C8.08144 11.9441 8.08144 12.3595 8.33771 12.6157L9.72994 14.008C9.85299 14.131 10.02 14.2003 10.1939 14.2003C10.3678 14.2003 10.5348 14.131 10.6579 14.008L13.4588 11.2065C13.715 10.9502 13.715 10.5348 13.4588 10.2782C13.2025 10.0222 12.7874 10.0222 12.5308 10.2785Z" fill="#0B7780"/>
<path d="M18.5596 16.634L17.6031 7.06978C17.4298 5.33761 15.9861 4.03134 14.2457 4.03134H13.7266V3.67763C13.7266 2.87077 13.4123 2.11214 12.8417 1.54088C12.2704 0.970594 11.5118 0.65625 10.7046 0.65625C9.89806 0.65625 9.1391 0.970594 8.56849 1.54088C7.99821 2.11116 7.68387 2.86978 7.68387 3.67697V4.03134H7.16478C5.42374 4.03134 3.98032 5.33761 3.8074 7.06978L2.85059 16.634C2.75609 17.5809 3.06813 18.5282 3.70634 19.2337C4.34487 19.9392 5.25673 20.3438 6.20829 20.3438H15.2019C16.1534 20.3438 17.0653 19.9392 17.7032 19.234C18.3417 18.5289 18.6541 17.5813 18.5596 16.634ZM8.99637 3.67697C8.99637 3.22055 9.17388 2.79169 9.49643 2.46914C9.81931 2.14659 10.2485 1.96875 10.7049 1.96875C11.1613 1.96875 11.5905 2.14659 11.9134 2.46914C12.2359 2.79202 12.4138 3.2212 12.4138 3.67763V4.03134H8.99637V3.67697ZM16.7299 18.353C16.3405 18.7842 15.7833 19.0312 15.2019 19.0312H6.20829C5.62718 19.0312 5.0697 18.7842 4.67956 18.353C4.28974 17.9222 4.0991 17.343 4.15685 16.7649L5.11334 7.2007C5.21899 6.14217 6.10099 5.34417 7.16478 5.34417H7.68387V6.10477C7.68387 6.46702 7.97787 6.76102 8.34012 6.76102C8.70237 6.76102 8.99637 6.46702 8.99637 6.10477V5.34417H12.4138V6.10477C12.4138 6.46702 12.7078 6.76102 13.07 6.76102C13.4323 6.76102 13.7263 6.46702 13.7263 6.10477V5.34417H14.2454C15.3088 5.34417 16.1912 6.1425 16.2968 7.2007L17.2533 16.7646C17.3111 17.343 17.1204 17.9222 16.7299 18.353Z" fill="#0B7780"/>
</svg>
