<svg width="28" height="28" viewBox="0 0 28 28" fill="none" xmlns="http://www.w3.org/2000/svg">
<g clip-path="url(#clip0_586_163)">
<path fill-rule="evenodd" clip-rule="evenodd" d="M6.84733 20.0186L5.11874 19.0145L5.09905 21.3377C5.09905 21.507 4.93368 21.7472 4.76042 21.7472C4.69349 21.7472 4.62261 21.7236 4.55567 21.6999L3.03577 20.8179C2.90189 20.747 2.83102 20.6132 2.83102 20.4753V17.6915L0.929177 16.5968V23.4915L6.84733 26.9093V20.0186ZM16.0534 9.68249V7.35933L14.3759 8.32797V15.2305L20.2941 11.8166V4.92985L18.3647 6.02843V8.80047C18.3647 9.08398 18.0969 9.17848 17.8883 9.29661L16.6676 9.99749C16.388 10.155 16.0534 10.0014 16.0534 9.68249ZM16.8448 6.91832V9.00129L17.5929 8.57209V6.47337L16.8448 6.91832ZM15.7108 6.67025L10.0368 3.13038L8.07585 4.2644L10.8125 5.82761L13.9901 7.66646L15.7108 6.67025ZM13.7617 0.0472742C13.8759 -0.0196643 14.0334 -0.0196643 14.1712 0.0472742L20.9044 3.92577C21.0186 3.99271 21.1092 4.12659 21.1092 4.2644V11.8285L27.6613 15.6006C27.7755 15.6715 27.866 15.8054 27.866 15.9432V23.7199C27.866 23.8538 27.7991 23.9916 27.6613 24.0585L20.9044 27.9606C20.8808 27.9725 20.8493 27.9843 20.8139 27.9921C20.7902 28 20.7627 28.004 20.739 28.004H20.7351H20.7312C20.7312 28.004 20.7272 28.004 20.7233 28.004H20.7154C20.6682 28.004 20.6209 27.9961 20.5776 27.9803C20.5579 27.9725 20.5382 27.9646 20.5185 27.9606L13.9822 24.1963L7.45765 27.9606C7.43009 27.9725 7.39072 27.9843 7.3474 27.9961C7.31984 28 7.29228 28.004 7.26471 28.004H7.2529H7.24503C7.19777 28.004 7.15052 27.9961 7.10721 27.9803C7.08752 27.9725 7.06783 27.9646 7.05208 27.9606L0.338542 24.0585C0.224353 23.9916 0.133789 23.8538 0.133789 23.7199V15.9432C0.133789 15.8054 0.200728 15.6715 0.338542 15.6006L6.82371 11.8678V4.28803C6.82371 4.15021 6.89064 4.01634 7.02846 3.94546L13.7617 0.0472742ZM12.3205 1.8113L17.9946 5.34723L19.861 4.2644L13.9664 0.862349L12.3205 1.8113ZM10.8046 2.68544L16.4589 6.2135L17.1874 5.80793L11.5252 2.272L10.8046 2.68544ZM13.5569 15.2226V8.33978L10.4069 6.50881L7.63878 4.92985V11.8166L8.17429 12.1238L13.5569 15.2226ZM22.8102 21.3613V19.0696L21.1328 20.0461V26.9093L27.051 23.4915V16.6323L25.1452 17.719L25.1688 20.4557C25.1688 20.747 24.8853 20.8376 24.6687 20.9518L23.4205 21.6802C23.1685 21.8496 22.8102 21.6684 22.8102 21.3613ZM23.2118 17.8884L23.9442 17.4592L18.2859 13.9311L17.5536 14.3564L23.2118 17.8884ZM23.6017 18.6089V20.6565L24.3498 20.2273V18.1719L23.6017 18.6089ZM22.4676 18.3451L16.7857 14.8053L14.8366 15.9353L20.7469 19.3413L22.4676 18.3451ZM19.0931 13.4625L24.7869 17.0103L26.6375 15.9511L20.7233 12.5175L19.0931 13.4625ZM20.3138 26.9093V20.0186L14.4193 16.6087V23.5073L20.3138 26.9093ZM1.37018 15.9353L3.25234 17.0221L8.91849 13.494L7.24109 12.5254L1.37018 15.9353ZM11.2023 14.8092L5.54006 18.3412L7.27653 19.3413L13.1711 15.9511L11.2023 14.8092ZM13.5806 16.6323L7.66241 20.0461V26.9093L13.5806 23.4915V16.6323ZM10.4226 14.3603L9.70206 13.9469L4.04379 17.4789L4.76042 17.8923L10.4226 14.3603ZM4.37454 18.5971L3.62641 18.164V20.2509L4.37454 20.6801V18.5971Z" fill="#0B7780"/>
</g>
<defs>
<clipPath id="clip0_586_163">
<rect width="28" height="28" fill="white"/>
</clipPath>
</defs>
</svg>
