<svg width="29" height="29" viewBox="0 0 29 29" fill="none" xmlns="http://www.w3.org/2000/svg">
<g clip-path="url(#clip0_429_696)">
<path d="M8.60926 19.9375C8.92954 19.9381 9.23971 19.8253 9.48481 19.6192C9.72992 19.413 9.89415 19.1268 9.94842 18.8111C10.0027 18.4955 9.94351 18.1708 9.78133 17.8946C9.61916 17.6184 9.36448 17.4085 9.06239 17.3021V14.9531H10.3257L14.0468 16.607V19.1146C13.7444 19.2215 13.4896 19.4318 13.3274 19.7084C13.1651 19.985 13.1059 20.3101 13.1601 20.6261C13.2143 20.9422 13.3785 21.2289 13.6237 21.4356C13.8689 21.6423 14.1792 21.7556 14.4999 21.7556C14.8206 21.7556 15.1309 21.6423 15.3761 21.4356C15.6213 21.2289 15.7855 20.9422 15.8397 20.6261C15.8939 20.3101 15.8347 19.985 15.6724 19.7084C15.5102 19.4318 15.2553 19.2215 14.953 19.1146V16.607L18.6741 14.9531H19.9374V17.3021C19.6351 17.409 19.3802 17.6193 19.218 17.8959C19.0557 18.1725 18.9965 18.4976 19.0507 18.8136C19.1049 19.1297 19.2692 19.4164 19.5143 19.6231C19.7595 19.8298 20.0698 19.9431 20.3905 19.9431C20.7112 19.9431 21.0215 19.8298 21.2667 19.6231C21.5119 19.4164 21.6761 19.1297 21.7303 18.8136C21.7845 18.4976 21.7253 18.1725 21.563 17.8959C21.4008 17.6193 21.146 17.409 20.8436 17.3021V14.5C20.8436 14.3798 20.7959 14.2646 20.7109 14.1796C20.6259 14.0946 20.5107 14.0469 20.3905 14.0469H18.6741L14.953 12.393V9.96875H16.7655C16.8857 9.96875 17.0009 9.92101 17.0859 9.83603C17.1709 9.75106 17.2186 9.6358 17.2186 9.51562V7.70312C17.2186 7.58295 17.1709 7.46769 17.0859 7.38272C17.0009 7.29774 16.8857 7.25 16.7655 7.25H12.2343C12.1141 7.25 11.9988 7.29774 11.9139 7.38272C11.8289 7.46769 11.7811 7.58295 11.7811 7.70312V9.51562C11.7811 9.6358 11.8289 9.75106 11.9139 9.83603C11.9988 9.92101 12.1141 9.96875 12.2343 9.96875H14.0468V12.393L10.3257 14.0469H8.60926C8.48909 14.0469 8.37383 14.0946 8.28886 14.1796C8.20388 14.2646 8.15614 14.3798 8.15614 14.5V17.3021C7.85405 17.4085 7.59936 17.6184 7.43719 17.8946C7.27502 18.1708 7.21583 18.4955 7.2701 18.8111C7.32438 19.1268 7.48861 19.413 7.73372 19.6192C7.97882 19.8253 8.28898 19.9381 8.60926 19.9375ZM20.3905 19.0312C20.3009 19.0312 20.2133 19.0047 20.1388 18.9549C20.0643 18.9051 20.0062 18.8343 19.9719 18.7515C19.9376 18.6687 19.9286 18.5776 19.9461 18.4897C19.9636 18.4018 20.0067 18.3211 20.0701 18.2577C20.1335 18.1943 20.2142 18.1512 20.3021 18.1337C20.39 18.1162 20.4811 18.1252 20.5639 18.1595C20.6467 18.1938 20.7175 18.2519 20.7673 18.3264C20.8171 18.4009 20.8436 18.4885 20.8436 18.5781C20.8436 18.6983 20.7959 18.8136 20.7109 18.8985C20.6259 18.9835 20.5107 19.0312 20.3905 19.0312ZM12.6874 8.15625H16.3124V9.0625H12.6874V8.15625ZM14.4999 20.8438C14.4103 20.8438 14.3227 20.8172 14.2481 20.7674C14.1736 20.7176 14.1156 20.6468 14.0813 20.564C14.047 20.4812 14.038 20.3901 14.0555 20.3022C14.073 20.2143 14.1161 20.1336 14.1795 20.0702C14.2429 20.0068 14.3236 19.9637 14.4115 19.9462C14.4994 19.9287 14.5905 19.9377 14.6733 19.972C14.7561 20.0063 14.8269 20.0644 14.8766 20.1389C14.9264 20.2134 14.953 20.301 14.953 20.3906C14.953 20.5108 14.9053 20.6261 14.8203 20.711C14.7353 20.796 14.6201 20.8438 14.4999 20.8438ZM14.4999 13.1832L17.4624 14.5L14.4999 15.8168L11.5374 14.5L14.4999 13.1832ZM8.60926 18.125C8.69888 18.125 8.78649 18.1516 8.86101 18.2014C8.93552 18.2512 8.9936 18.3219 9.0279 18.4047C9.06219 18.4875 9.07117 18.5786 9.05368 18.6665C9.0362 18.7544 8.99304 18.8352 8.92967 18.8985C8.8663 18.9619 8.78556 19.0051 8.69766 19.0225C8.60977 19.04 8.51866 19.0311 8.43586 18.9968C8.35306 18.9625 8.28229 18.9044 8.2325 18.8299C8.18271 18.7554 8.15614 18.6677 8.15614 18.5781C8.15614 18.4579 8.20388 18.3427 8.28886 18.2577C8.37383 18.1727 8.48909 18.125 8.60926 18.125Z" fill="#0B7780"/>
<path d="M5.89062 5.4375C5.77045 5.4375 5.65519 5.48524 5.57022 5.57022C5.48524 5.65519 5.4375 5.77045 5.4375 5.89062V23.1094C5.4375 23.2296 5.48524 23.3448 5.57022 23.4298C5.65519 23.5148 5.77045 23.5625 5.89062 23.5625H23.1094C23.2296 23.5625 23.3448 23.5148 23.4298 23.4298C23.5148 23.3448 23.5625 23.2296 23.5625 23.1094V5.89062C23.5625 5.77045 23.5148 5.65519 23.4298 5.57022C23.3448 5.48524 23.2296 5.4375 23.1094 5.4375H5.89062ZM22.6562 22.6562H6.34375V6.34375H22.6562V22.6562Z" fill="#0B7780"/>
<path d="M28.0938 7.70312V6.79688H25.8281V5.4375C25.8281 5.31733 25.7803 5.2021 25.6954 5.11714L23.8829 3.30464C23.7979 3.21966 23.6827 3.1719 23.5625 3.17188H22.2031V0.90625H21.2969V3.17188H19.9375V0.90625H19.0312V3.17188H17.6719V0.90625H16.7656V3.17188H15.4062V0.90625H14.5V3.17188H13.1406V0.90625H12.2344V3.17188H10.875V0.90625H9.96875V3.17188H8.60938V0.90625H7.70312V3.17188H6.34375V0.90625H5.4375V3.17188H3.625C3.50482 3.17188 3.38957 3.21961 3.30459 3.30459C3.21961 3.38957 3.17188 3.50482 3.17188 3.625V6.34375H0.90625V7.25H3.17188V8.60938H0.90625V9.51562H3.17188V10.875H0.90625V11.7812H3.17188V13.1406H0.90625V14.0469H3.17188V15.4062H0.90625V16.3125H3.17188V17.6719H0.90625V18.5781H3.17188V19.9375H0.90625V20.8438H3.17188V22.2031H0.90625V23.1094H3.17188V25.375C3.17188 25.4952 3.21961 25.6104 3.30459 25.6954C3.38957 25.7804 3.50482 25.8281 3.625 25.8281H5.89062V28.0938H6.79688V25.8281H8.15625V28.0938H9.0625V25.8281H10.4219V28.0938H11.3281V25.8281H12.6875V28.0938H13.5938V25.8281H14.9531V28.0938H15.8594V25.8281H17.2188V28.0938H18.125V25.8281H19.4844V28.0938H20.3906V25.8281H21.75V28.0938H22.6562V25.8281H25.375C25.4952 25.8281 25.6104 25.7804 25.6954 25.6954C25.7804 25.6104 25.8281 25.4952 25.8281 25.375V23.5625H28.0938V22.6562H25.8281V21.2969H28.0938V20.3906H25.8281V19.0312H28.0938V18.125H25.8281V16.7656H28.0938V15.8594H25.8281V14.5H28.0938V13.5938H25.8281V12.2344H28.0938V11.3281H25.8281V9.96875H28.0938V9.0625H25.8281V7.70312H28.0938ZM24.9219 24.9219H4.07812V4.07812H23.3749L24.9219 5.62509V24.9219Z" fill="#0B7780"/>
</g>
<defs>
<clipPath id="clip0_429_696">
<rect width="29" height="29" fill="white"/>
</clipPath>
</defs>
</svg>
