<svg width="33" height="33" viewBox="0 0 33 33" fill="none" xmlns="http://www.w3.org/2000/svg">
<g clip-path="url(#clip0_429_689)">
<path d="M32.7746 4.60204L18.002 0.0129761C17.9375 -0.00635986 17.8731 -0.00635986 17.8086 0.0129761L3.04242 4.60204C2.90063 4.64716 2.81039 4.78251 2.81684 4.93075C2.82328 5.07899 2.93285 5.20145 3.0811 5.22723C4.53774 5.49794 5.93637 5.83954 7.27699 6.26493V10.0483C4.15102 7.65712 5.35629 8.32743 4.84711 8.0245C3.77719 7.38641 1.97895 9.90653 1.33442 10.9829C0.689886 12.0657 -0.67652 14.8372 0.393402 15.4753C0.593207 15.5977 2.69438 16.1134 7.99242 18.9944C7.97309 19.3038 8.06332 19.6454 8.02465 19.8194C7.97309 20.0386 7.6895 20.335 7.59282 20.6831L5.36274 21.4952C4.95024 21.6499 4.87289 22.2042 5.23383 22.4556L5.92348 22.939L5.71078 23.7511C5.62055 24.0991 5.88481 24.4407 6.2393 24.4407C6.41332 24.4407 6.27797 24.4472 8.9141 23.4997C9.19125 23.6028 9.52641 23.6222 9.69399 23.7188C9.86156 23.8155 10.0356 24.1056 10.2547 24.2989L10.635 26.9157C10.6608 27.1155 10.8026 27.2831 10.9959 27.354C11.1764 27.4184 11.3955 27.3862 11.5502 27.238L12.1625 26.6643L12.9102 27.0382C13.0907 27.1284 13.3098 27.1091 13.4774 26.9931C13.645 26.8706 13.7288 26.6708 13.6965 26.471L13.3549 24.1249C13.6192 23.88 13.7416 23.4868 13.9092 23.3386C14.0446 23.2225 14.3926 23.1388 14.6504 22.9776C17.3575 24.7436 19.6778 26.471 21.1795 27.8438C21.3149 28.0179 21.5082 28.1016 21.7209 28.1016C22.6168 28.1016 23.9252 26.6063 24.8598 25.0401C25.9297 23.2419 26.6903 21.0763 25.8137 20.5542C25.6268 20.4446 24.0155 20.0386 20.0194 17.9825C22.0819 16.339 24.4344 15.7395 27.0577 15.0757C27.4573 14.9725 27.8698 14.8694 28.2887 14.7599C28.4305 14.7212 28.5272 14.5923 28.5272 14.444C28.5143 11.8143 28.5014 8.19852 28.5079 6.25204C29.8549 5.82665 31.26 5.4786 32.7166 5.21434C32.8649 5.18856 32.968 5.0661 32.9809 4.91786C33.0067 4.78251 32.9164 4.64716 32.7746 4.60204ZM16.0684 16.571C19.1428 18.337 22.2043 19.871 24.6084 20.7991C23.8414 21.3276 22.9907 22.404 22.3204 23.519C21.65 24.6405 21.1086 25.9038 21.0055 26.8255C19.4522 25.4913 17.3639 23.9766 15.0629 22.4684C15.1725 22.0882 15.0178 21.6499 15.0629 21.4307C15.1274 21.1472 15.5657 20.7669 15.5205 20.2706C15.4754 19.7679 14.9727 19.4778 14.8631 19.2136C14.8116 19.0975 14.8116 18.8913 14.7922 18.6979L16.0684 16.571ZM14.4957 17.9438C14.167 17.6409 13.6385 17.6796 13.4 17.5378C13.1551 17.396 12.9424 16.9126 12.517 16.7643L13.7223 14.747L15.701 15.9265L14.4957 17.9438ZM11.7114 16.8546C11.5373 16.9319 11.3504 17.0286 11.2215 17.0415C10.9315 17.0673 10.4352 16.7708 9.97758 16.9641C9.51996 17.1575 9.39106 17.7247 9.17192 17.9181C8.99789 18.0663 8.54672 18.1372 8.25668 18.4143C5.84614 17.0995 3.51938 15.9845 1.61157 15.2497C3.12621 14.1798 5.01469 11.0087 5.2145 9.21688C7.17387 10.8927 9.97114 12.8649 12.9811 14.7341L11.7114 16.8546ZM0.760785 13.8511C1.16039 12.33 2.43012 10.1966 3.58383 9.12665C3.73207 8.98485 4.34438 8.47567 4.5184 8.58524C4.55707 8.61102 4.67953 8.87528 4.47328 9.66161C4.07368 11.1827 2.80395 13.3097 1.65024 14.386C1.05727 14.9403 0.76723 14.9597 0.722113 14.9339C0.683441 14.9016 0.554535 14.6374 0.760785 13.8511ZM6.38754 23.7511L6.56801 23.055C6.62602 22.8294 6.54223 22.5974 6.35532 22.4684L5.76235 22.0559L7.68305 21.3534C7.84418 21.6434 8.14711 21.869 8.22446 22.0559C8.31469 22.2622 8.25024 22.6747 8.38559 23.0227L6.38754 23.7511ZM12.401 26.0714C12.1948 25.9682 11.9498 26.0005 11.7758 26.1616L11.2473 26.6515L10.9444 24.5374C11.2989 24.4987 11.6598 24.2409 11.8725 24.2216C12.0723 24.2022 12.4204 24.3569 12.7491 24.3634L13.0391 26.3872L12.401 26.0714ZM13.4967 22.8681C13.1873 23.1388 13.0455 23.635 12.8651 23.7124C12.6782 23.7897 12.2205 23.5513 11.8145 23.5835C11.4213 23.6222 11.0024 23.9444 10.8026 23.8993C10.6092 23.8542 10.3901 23.3966 10.0291 23.1774C9.67465 22.9647 9.15258 22.9841 9.03012 22.8358C8.89477 22.6811 8.985 22.172 8.82387 21.7981C8.66274 21.4243 8.2309 21.1343 8.21157 20.9345C8.19223 20.7411 8.56606 20.3673 8.65629 19.9741C8.74653 19.5938 8.56606 19.0975 8.67563 18.9171C8.7852 18.7302 9.30082 18.6657 9.59731 18.4015C9.90668 18.1307 10.0485 17.6345 10.2289 17.5571C10.4159 17.4798 10.8799 17.7182 11.2795 17.686C11.6727 17.6474 12.0916 17.3251 12.2914 17.3702C12.4848 17.4153 12.7104 17.8794 13.0649 18.0921C13.4129 18.2983 13.9414 18.2919 14.0639 18.4337C14.1993 18.5884 14.109 19.0975 14.2702 19.4714C14.4248 19.8323 14.8631 20.1417 14.8825 20.335C14.9018 20.5284 14.528 20.9022 14.4377 21.2954C14.3475 21.6757 14.528 22.172 14.4184 22.3524C14.3088 22.5329 13.7997 22.6038 13.4967 22.8681ZM25.4592 22.1913C25.0596 23.7124 23.7899 25.8393 22.6362 26.9157C22.0432 27.47 21.7532 27.4893 21.708 27.4636C21.6629 27.4378 21.5405 27.1735 21.7467 26.3807C22.1463 24.8597 23.4161 22.7263 24.5698 21.6563C24.718 21.5145 25.3303 21.0054 25.5043 21.1149C25.543 21.1407 25.659 21.405 25.4592 22.1913ZM27.902 14.212C27.5668 14.2958 27.2381 14.3796 26.9159 14.4634C24.1121 15.1723 21.6114 15.8104 19.4071 17.6667C18.4274 17.1511 17.409 16.5968 16.3778 16.0038C16.3971 15.92 16.3971 15.8298 16.3713 15.746C16.3327 15.6171 16.2489 15.5075 16.1393 15.4431L13.9414 14.1282C13.8254 14.0573 13.6836 14.0315 13.5547 14.0638C13.4709 14.0831 13.3936 14.1218 13.3291 14.1798C11.3311 12.9358 9.48129 11.6854 7.92153 10.5317V6.47118C11.6727 7.74091 14.9469 9.61649 17.6926 12.085C17.8151 12.1946 18.002 12.1946 18.1245 12.085C20.8702 9.61649 24.1379 7.74091 27.8827 6.47118C27.8762 8.54012 27.8891 12.1495 27.902 14.212ZM17.9118 11.4212C14.2637 8.21141 9.7391 6.00712 4.44106 4.84696L17.9118 0.663953L31.3825 4.84696C26.078 6.00712 21.5534 8.21141 17.9118 11.4212Z" fill="#0B7780"/>
<path d="M11.028 18.5754C9.8936 18.859 9.20395 20.0127 9.48755 21.1471C9.73247 22.1203 10.6026 22.7519 11.5372 22.7519C12.9229 22.7519 13.9348 21.45 13.5997 20.1158C13.3161 18.9814 12.1688 18.2918 11.028 18.5754ZM11.911 22.0623C11.1182 22.2621 10.319 21.7851 10.1192 20.9924C9.88716 20.0578 10.5897 19.1555 11.55 19.1555C12.1946 19.1555 12.8069 19.5873 12.9809 20.2705C13.1743 21.0633 12.6973 21.8625 11.911 22.0623Z" fill="#0B7780"/>
</g>
<defs>
<clipPath id="clip0_429_689">
<rect width="33" height="33" fill="white"/>
</clipPath>
</defs>
</svg>
